<!-- Created with Inkscape (http://www.inkscape.org/) -->
<svg width="217mm" height="49mm" version="1.1" viewBox="0 0 217 49" xmlns="http://www.w3.org/2000/svg">
 <ellipse cx="133.61" cy="10.968" rx="2.8977" ry="2.8527" opacity=".86" stroke-width=".96465"/>
 <ellipse cx="151.83" cy="10.898" rx="2.8977" ry="2.8527" opacity=".86" stroke-width=".96465"/>
 <g transform="translate(177.72 -98.84)">
  <ellipse cx="-35.061" cy="109.89" rx="2.649" ry="2.6527" fill="#ff0" opacity=".86" stroke-width=".52603"/>
 </g>
 <g transform="matrix(-1.0668 0 0 -1.0668 380.38 43.787)" stroke-width=".5959">
  <rect x="190.02" y="26.224" width="2.1627" height="5.7762" fill="#ff0" opacity=".86"/>
  <rect transform="rotate(34.793)" x="161.23" y="-94.084" width="2.1627" height="5.7762" opacity=".86"/>
  <rect transform="rotate(-34.251)" x="151.79" y="122.62" width="2.1627" height="5.7762" opacity=".86"/>
 </g>
 <g transform="translate(0 -4.7625)" stroke-width=".53995">
  <path d="m202.37 19.966c-0.21945-0.01629-0.50091-0.09403-0.75373-0.209-0.18229-0.08284-0.4517-0.25443-0.65971-0.41998-0.14058-0.11194-0.49585-0.45946-0.60795-0.59487l-0.0705-0.08507-0.0199-1.2631c-0.011-0.69471-0.0185-1.2646-0.0164-1.2665 3e-3 -0.0021 0.98584-3.45e-4 2.1866 0.0042l2.1832 0.0061v2.5018l-0.0859 0.10868c-0.68262 0.86355-1.4058 1.2721-2.1555 1.2177z" fill="#ff0" opacity=".86"/>
  <path d="m196.09 33.054c-0.151-0.02116-0.2785-0.07143-0.40841-0.16058-0.0776-0.05332-0.22357-0.1907-0.25735-0.24221-0.0175-0.02667-0.0191-0.14756-0.0398-2.9689-0.012-1.6175-0.022-3.1184-0.0222-3.3353l-4.4e-4 -0.39425 0.0931-0.0692c0.24436-0.18134 0.51507-0.31146 0.75476-0.36303 0.10803-0.02321 0.32278-0.02381 0.41484-0.0011 0.1713 0.04233 0.33896 0.14125 0.47961 0.28278 0.0467 0.04702 0.0914 0.09545 0.0994 0.10746 0.0124 0.01832 0.0177 0.46758 0.0381 3.2433 0.013 1.7717 0.0239 3.2729 0.0239 3.3361l2.7e-4 0.11479-0.0917 0.06859c-0.24296 0.18154-0.52703 0.31777-0.76118 0.36482-0.0963 0.02036-0.24686 0.02686-0.32259 0.01629z" fill="#000001" opacity=".86"/>
  <path d="m208.26 32.871c-0.10477-0.02402-0.22008-0.07431-0.31437-0.13718-0.0985-0.06573-0.28056-0.24032-0.28869-0.27688-3e-3 -0.01217-0.0138-1.3344-0.0246-2.9381-0.0107-1.6037-0.022-3.0995-0.025-3.3239l-5e-3 -0.40811 0.0868-0.06431c0.28041-0.20782 0.55583-0.33608 0.81457-0.37932 0.12079-0.02035 0.28545-0.01629 0.3879 0.01015 0.082 0.02096 0.24656 0.10014 0.31737 0.15285 0.0656 0.04864 0.23076 0.21099 0.24607 0.24167 9e-3 0.01629 0.0179 0.99168 0.0349 3.3492l0.024 3.3274-0.0311 0.02768c-0.0533 0.04762-0.19769 0.14613-0.30503 0.20821-0.14058 0.08121-0.30859 0.15224-0.44504 0.18806-0.0972 0.02545-0.13601 0.03034-0.26281 0.03317-0.10316 0.0019-0.16746-0.0011-0.20979-0.01015z" fill="#000001" opacity=".86"/>
 </g>
 <g transform="translate(22.337 51.111)" stroke-width="1.2492">
  <ellipse cx="79.258" cy="-44.961" rx="4.5323" ry="4.4215" fill="#ff0" opacity=".86" stroke-width="1.0701"/>
 </g>
 <ellipse cx="20.849" cy="8.1845" rx="3.7695" ry="3.7088" fill="#ff0" opacity=".86"/>
 <g fill="#000001">
  <ellipse cx="11.17" cy="30.33" rx="2.7045" ry="2.6625" opacity=".86" stroke-width=".90034"/>
  <ellipse cx="30.455" cy="30.386" rx="2.7045" ry="2.6625" opacity=".86" stroke-width=".90034"/>
  <ellipse cx="88.88" cy="31.864" rx="3.5453" ry="3.4902" opacity=".86" stroke-width="1.1802"/>
  <ellipse cx="114.22" cy="31.855" rx="3.5453" ry="3.4902" opacity=".86" stroke-width="1.1802"/>
 </g>
 <rect x="58.862" y="4.1588" width="4" height="8" fill="#ff0" opacity=".86" stroke-width=".59636"/>
 <rect x="46.587" y="28.358" width="6.35" height="4" fill="#000001" opacity=".86" stroke-width=".64386"/>
 <rect x="68.787" y="28.358" width="6.35" height="4" fill="#000001" opacity=".86" stroke-width=".629"/>
 <g font-family="Arial" font-size="2.8222px" stroke-width=".10868" text-anchor="middle">
  <text x="60.270203" y="38.128044" style="line-height:1.25" xml:space="preserve"><tspan x="60.270203" y="38.128044" text-align="center">Sri Lanka</tspan><tspan x="60.270203" y="41.655819" text-align="center">UK</tspan><tspan x="60.270203" y="45.183594" text-align="center">Singapore/Malaysia</tspan></text>
  <text x="177.10794" y="33.862202" style="line-height:1.25" xml:space="preserve"><tspan x="177.10794" y="33.862202" text-align="center">AustraliyaNew Zealand</tspan><tspan x="177.10794" y="37.389977" text-align="center">China</tspan></text>
  <text x="203.54272" y="33.8717" style="line-height:1.25" xml:space="preserve"><tspan x="203.54272" y="33.8717" text-align="center">America</tspan><tspan x="203.54272" y="37.399475" text-align="center">Japan</tspan></text>
  <text x="20.335337" y="32.282944" style="line-height:1.25" xml:space="preserve"><tspan x="20.335337" y="32.282944" text-align="center"/><tspan x="20.335337" y="35.810719" text-align="center">India</tspan><tspan x="20.335337" y="39.338493" text-align="center">Sri Lanka</tspan><tspan x="20.335337" y="42.866268" text-align="center">Pakistan</tspan><tspan x="20.335337" y="46.394043" text-align="center">Bangaladesh</tspan><tspan x="20.335337" y="49.921818" text-align="center"/></text>
  <text x="101.65077" y="32.751648" style="line-height:1.25" xml:space="preserve"><tspan x="101.65077" y="32.751648" text-align="center"/><tspan x="101.65077" y="36.279423" text-align="center">India</tspan><tspan x="101.65077" y="39.807198" text-align="center">Sri Lanka</tspan><tspan x="101.65077" y="43.334972" text-align="center">Pakistan</tspan><tspan x="101.65077" y="46.862747" text-align="center">Bangaladesh</tspan><tspan x="101.65077" y="50.390522" text-align="center"/></text>
  <text x="142.98291" y="19.762333" style="line-height:1.25" xml:space="preserve"><tspan x="142.98291" y="19.762333" text-align="center">Russia</tspan><tspan x="142.98291" y="23.290108" text-align="center">Europe</tspan></text>
 </g>
</svg>
